<svg width="24" height="24" viewBox="0 0 24 24" fill="none" xmlns="http://www.w3.org/2000/svg">
<rect width="24" height="24" rx="2" fill="#393939"/>
<path d="M17.6488 15.9103C17.4371 16.3994 17.1865 16.8496 16.8961 17.2635C16.5003 17.8278 16.1763 18.2185 15.9265 18.4354C15.5394 18.7914 15.1246 18.9737 14.6804 18.9841C14.3615 18.9841 13.977 18.8934 13.5293 18.7093C13.0802 18.5261 12.6675 18.4354 12.2901 18.4354C11.8943 18.4354 11.4698 18.5261 11.0158 18.7093C10.5611 18.8934 10.1948 18.9893 9.91468 18.9988C9.48873 19.0169 9.06416 18.8294 8.64037 18.4354C8.36989 18.1994 8.03156 17.795 7.62627 17.2221C7.19142 16.6102 6.83391 15.9007 6.55383 15.0919C6.25388 14.2182 6.10352 13.3722 6.10352 12.5531C6.10352 11.6149 6.30625 10.8057 6.71232 10.1276C7.03146 9.58288 7.45603 9.15321 7.9874 8.83779C8.51878 8.52236 9.09294 8.36163 9.71125 8.35134C10.0496 8.35134 10.4932 8.456 11.0446 8.66167C11.5944 8.86803 11.9474 8.97268 12.1021 8.97268C12.2179 8.97268 12.61 8.85032 13.2748 8.60636C13.9035 8.38012 14.4341 8.28645 14.8688 8.32335C16.0466 8.4184 16.9316 8.88272 17.5201 9.71924C16.4666 10.3575 15.9455 11.2515 15.9559 12.3983C15.9654 13.2916 16.2895 14.035 16.9264 14.6252C17.215 14.8992 17.5373 15.1109 17.896 15.2613C17.8182 15.4868 17.7361 15.7028 17.6488 15.9103ZM14.9474 5.28008C14.9474 5.98024 14.6916 6.63398 14.1818 7.23907C13.5665 7.95841 12.8223 8.37407 12.0152 8.30848C12.0049 8.22448 11.999 8.13608 11.999 8.04318C11.999 7.37103 12.2916 6.65169 12.8112 6.06354C13.0706 5.76574 13.4006 5.51813 13.8007 5.32061C14.1999 5.12603 14.5776 5.01843 14.9327 5C14.9431 5.0936 14.9474 5.18721 14.9474 5.28007V5.28008Z" fill="white"/>
</svg>
